# xmcd CD database generated by RipIT
#
# Track frame offsets:
# 150
# 6092
# 41982
# 67543
# 86409
# 108542
# 114752
# 131930
# 167745
# 202401
#
# Disc length: 3141 seconds
#
# Revision: 0
# Processed by: cddbd v1.5.2PL0 Copyright (c) Steve Scherf et al.
# Submitted via: RipIT 3.9.0 www.suwald.com/ripit/ripit.html on 2013-01-05 at 01:18
#
DISCID=850c430a
DTITLE=Luca Jurman - Live in Blue Note Milano Disc 1
DYEAR=2009
DGENRE=
TTITLE0=Ladies_and_Gentlemen
TTITLE1=Superstition
TTITLE2=How_sweet_it_is_to_be_loved_by_you
TTITLE3=Crazy
TTITLE4=Knock_on_wood
TTITLE5=Vocal_tribute_to_Michael
TTITLE6=Gone_to_soon
TTITLE7=I_heard_it_through_the_Grapevine
TTITLE8=Georgia_on_my_mind
TTITLE9=No_woman_no_cry
EXTD=
EXTT0=
EXTT1=
EXTT2=
EXTT3=
EXTT4=
EXTT5=
EXTT6=
EXTT7=
EXTT8=
EXTT9=
PLAYORDER=
